# xmcd CD database file
#
# Track frame offsets:
#	150
#	28482
#	66917
#	100035
#	130867
#	166427
#	204020
#	233165
#	263085
#	292465
#
# Disc length: 4251 seconds
#
# Revision: 0
# Processed by: cddbd v1.5.2PL0 Copyright (c) Steve Scherf et al.
# Submitted via: CDex 1.70beta2
#
DISCID=9310990a
DTITLE=Gary Smulyan - High Noon - The Jazz Soul Of Frankie Laine
DYEAR=2008
DGENRE=Jazz
TTITLE0=I'd Give My Life
TTITLE1=High Noon
TTITLE2=Torchin'
TTITLE3=It Only Happens Once
TTITLE4=Baby, Baby All The Time
TTITLE5=When You're In Love
TTITLE6=Put Yourself IN My Place, Baby
TTITLE7=A Man Ain't Supposed To Cry
TTITLE8=That Lucky Old Son
TTITLE9=We'll Be Together Again
EXTD=YEAR: 2008
EXTT0=
EXTT1=
EXTT2=
EXTT3=
EXTT4=
EXTT5=
EXTT6=
EXTT7=
EXTT8=
EXTT9=
PLAYORDER=
